<svg width="30" height="30" viewBox="0 0 30 30" fill="none" xmlns="http://www.w3.org/2000/svg">
<path d="M25.5 4.5C23.1667 4.16667 17.6 4 14 6C9.5 8.5 7 13.5 6 16.5C5 19.5 4.5 23 4.5 24" stroke="#069B30" fill="none"/>
<path d="M25 4.5C24.5 14 21 18 18 20.5C13 24 10.2041 24 4.5 24" stroke="#069B30" fill="none"/>
<path d="M24.5 5L21 8M21 8L17.5 7M21 8V11M21 8L18.5 10.5M18.5 10.5L14.5 9.5M18.5 10.5V14M18.5 10.5L16 12.5M16 12.5L11 12M16 12.5V17.5M16 12.5L13.5 15M13.5 15H8.5M13.5 15V20M13.5 15L11 17.5M11 17.5H7.5M11 17.5V21M11 17.5L8 21" stroke="#069B30" fill="none"/>
</svg>
